<svg width="633" height="628" xmlns="http://www.w3.org/2000/svg" xmlns:xlink="http://www.w3.org/1999/xlink" xml:space="preserve" overflow="hidden"><defs><clipPath id="clip0"><rect x="797" y="559" width="633" height="628"/></clipPath></defs><g clip-path="url(#clip0)" transform="translate(-797 -559)"><path d="M909 642.5C909 596.936 945.936 560 991.5 560 1037.06 560 1074 596.936 1074 642.5 1074 688.063 1037.06 725 991.5 725 945.936 725 909 688.063 909 642.5Z" fill="#C00000" fill-rule="evenodd" fill-opacity="1"/><path d="M800.487 911.73C795.726 866.416 828.601 825.823 873.915 821.062 919.23 816.301 959.823 849.177 964.584 894.491 969.344 939.805 936.469 980.398 891.155 985.159 845.841 989.919 805.247 957.044 800.487 911.73Z" fill="#C00000" fill-rule="evenodd" fill-opacity="1"/><path d="M960 1100.5C960 1054.94 996.937 1018 1042.5 1018 1088.06 1018 1125 1054.94 1125 1100.5 1125 1146.06 1088.06 1183 1042.5 1183 996.937 1183 960 1146.06 960 1100.5Z" fill="#C00000" fill-rule="evenodd" fill-opacity="1"/><path d="M1219.65 651.213C1229.88 606.814 1274.17 579.121 1318.57 589.358 1362.97 599.596 1390.67 643.887 1380.43 688.285 1370.19 732.684 1325.9 760.377 1281.5 750.14 1237.1 739.903 1209.41 695.611 1219.65 651.213Z" fill="#C00000" fill-rule="evenodd" fill-opacity="1"/><path d="M1262.8 931.856C1272.32 887.298 1316.16 858.894 1360.72 868.413 1405.28 877.933 1433.68 921.771 1424.16 966.329 1414.64 1010.89 1370.8 1039.29 1326.24 1029.77 1281.69 1020.25 1253.28 976.414 1262.8 931.856Z" fill="#C00000" fill-rule="evenodd" fill-opacity="1"/><path d="M0 0 58.9326 120.571" stroke="#404040" stroke-width="22.9167" stroke-linecap="butt" stroke-linejoin="miter" stroke-miterlimit="8" stroke-opacity="1" fill="none" fill-rule="evenodd" transform="matrix(-1 0 0 1 933.433 700.5)"/><path d="M0 0 148.866 106.217" stroke="#404040" stroke-width="22.9167" stroke-linecap="butt" stroke-linejoin="miter" stroke-miterlimit="8" stroke-opacity="1" fill="none" fill-rule="evenodd" transform="matrix(1 0 0 -1 1125.5 1100.72)"/><path d="M891.5 985.5 984.886 1042.17" stroke="#404040" stroke-width="22.9167" stroke-linecap="butt" stroke-linejoin="miter" stroke-miterlimit="8" stroke-opacity="1" fill="none" fill-rule="evenodd"/><path d="M1344.5 740.5 1361.44 869.212" stroke="#404040" stroke-width="22.9167" stroke-linecap="butt" stroke-linejoin="miter" stroke-miterlimit="8" stroke-opacity="1" fill="none" fill-rule="evenodd"/><path d="M1074.5 642.5 1220.46 651.558" stroke="#404040" stroke-width="22.9167" stroke-linecap="butt" stroke-linejoin="miter" stroke-miterlimit="8" stroke-opacity="1" fill="none" fill-rule="evenodd"/><path d="M0 0 265.501 181.004" stroke="#404040" stroke-width="22.9167" stroke-linecap="butt" stroke-linejoin="miter" stroke-miterlimit="8" stroke-opacity="1" fill="none" fill-rule="evenodd" transform="matrix(-1 0 0 1 1231 713.5)"/><path d="M1263.72 931.865 965.5 894.5" stroke="#404040" stroke-width="22.9167" stroke-linecap="butt" stroke-linejoin="miter" stroke-miterlimit="8" stroke-opacity="1" fill="none" fill-rule="evenodd"/></g></svg>